{
  "accessors": [
    {
      "bufferView": 2,
      "componentType": 5126,
      "count": 2886,
      "max": [
        0.32484006881713867,
        0.32484009861946106,
        0.32484012842178345
      ],
      "min": [
        -0.32484006881713867,
        -0.32484009861946106,
        -0.32484012842178345
      ],
      "type": "VEC3"
    },
    {
      "bufferView": 2,
      "byteOffset": 34632,
      "componentType": 5126,
      "count": 2886,
      "max": [
        1,
        1,
        1
      ],
      "min": [
        -1,
        -1,
        -1
      ],
      "type": "VEC3"
    },
    {
      "bufferView": 1,
      "componentType": 5126,
      "count": 2886,
      "max": [
        0.79166686534881592,
        0.75000011920928955
      ],
      "min": [
        0.70833331346511841,
        0.5
      ],
      "type": "VEC2"
    },
    {
      "bufferView": 0,
      "componentType": 5125,
      "count": 15552,
      "max": [
        2885
      ],
      "min": [
        0
      ],
      "type": "SCALAR"
    },
    {
      "bufferView": 2,
      "byteOffset": 69264,
      "componentType": 5126,
      "count": 13760,
      "max": [
        0.31174150109291077,
        0.31174156069755554,
        0.31174153089523315
      ],
      "min": [
        -0.31174153089523315,
        -0.31174156069755554,
        -0.31174153089523315
      ],
      "type": "VEC3"
    },
    {
      "bufferView": 2,
      "byteOffset": 234384,
      "componentType": 5126,
      "count": 13760,
      "max": [
        0.99283289909362793,
        0.99283343553543091,
        0.99283313751220703
      ],
      "min": [
        -0.99283319711685181,
        -0.99283337593078613,
        -0.99283289909362793
      ],
      "type": "VEC3"
    },
    {
      "bufferView": 1,
      "byteOffset": 23088,
      "componentType": 5126,
      "count": 13760,
      "max": [
        0.87500011920928955,
        0.75000011920928955
      ],
      "min": [
        0,
        0
      ],
      "type": "VEC2"
    },
    {
      "bufferView": 0,
      "byteOffset": 62208,
      "componentType": 5125,
      "count": 72576,
      "max": [
        13759
      ],
      "min": [
        0
      ],
      "type": "SCALAR"
    }
  ],
  "asset": {
    "extras": {
      "author": "chroma3d (https://sketchfab.com/vendol21)",
      "license": "CC-BY-4.0 (http://creativecommons.org/licenses/by/4.0/)",
      "source": "https://sketchfab.com/3d-models/low-poly-cartoon-volley-ball-free-3d-model-79decd9b09d44e04a47219011547355c",
      "title": "Low Poly Cartoon Volley Ball Free 3D model"
    },
    "generator": "Sketchfab-8.84.0",
    "version": "2.0"
  },
  "bufferViews": [
    {
      "buffer": 0,
      "byteLength": 352512,
      "byteOffset": 0,
      "name": "floatBufferViews",
      "target": 34963
    },
    {
      "buffer": 0,
      "byteLength": 133168,
      "byteOffset": 352512,
      "byteStride": 8,
      "name": "floatBufferViews",
      "target": 34962
    },
    {
      "buffer": 0,
      "byteLength": 399504,
      "byteOffset": 485680,
      "byteStride": 12,
      "name": "floatBufferViews",
      "target": 34962
    }
  ],
  "buffers": [
    {
      "byteLength": 885184,
      "uri": "scene.bin"
    }
  ],
  "materials": [
    {
      "doubleSided": true,
      "emissiveFactor": [
        0,
        0,
        0
      ],
      "name": "VolleyBallYellow",
      "pbrMetallicRoughness": {
        "baseColorFactor": [
          0.80000000000000004,
          0.70335199999999998,
          0.0492842,
          1
        ],
        "metallicFactor": 0,
        "roughnessFactor": 0.84869072039647686
      }
    },
    {
      "doubleSided": true,
      "emissiveFactor": [
        0,
        0,
        0
      ],
      "name": "VolleyBallBlue",
      "pbrMetallicRoughness": {
        "baseColorFactor": [
          0.024121699999999999,
          0.230736,
          0.80000000000000004,
          1
        ],
        "metallicFactor": 0,
        "roughnessFactor": 0.94903762700567951
      }
    }
  ],
  "meshes": [
    {
      "name": "VolleyBall_VolleyBallYellow_0",
      "primitives": [
        {
          "attributes": {
            "NORMAL": 1,
            "POSITION": 0,
            "TEXCOORD_0": 2
          },
          "indices": 3,
          "material": 0,
          "mode": 4
        }
      ]
    },
    {
      "name": "VolleyBall_VolleyBallBlue_0",
      "primitives": [
        {
          "attributes": {
            "NORMAL": 5,
            "POSITION": 4,
            "TEXCOORD_0": 6
          },
          "indices": 7,
          "material": 1,
          "mode": 4
        }
      ]
    }
  ],
  "nodes": [
    {
      "children": [
        1
      ],
      "name": "RootNode (gltf orientation matrix)",
      "rotation": [
        -0.70710678118654746,
        -0,
        -0,
        0.70710678118654757
      ]
    },
    {
      "children": [
        2
      ],
      "name": "RootNode (model correction matrix)"
    },
    {
      "children": [
        3
      ],
      "matrix": [
        1,
        0,
        0,
        0,
        0,
        0,
        1,
        0,
        0,
        -1,
        0,
        0,
        0,
        0,
        0,
        1
      ],
      "name": "79c4226e4bb146169129ab735d3e71c7.fbx"
    },
    {
      "children": [
        4
      ],
      "name": "RootNode"
    },
    {
      "children": [
        5,
        6
      ],
      "matrix": [
        100,
        0,
        0,
        0,
        0,
        -1.6292067939183141e-05,
        -99.999999999998678,
        0,
        0,
        99.999999999998678,
        -1.6292067939183141e-05,
        0,
        0,
        0,
        0,
        1
      ],
      "name": "VolleyBall"
    },
    {
      "mesh": 0,
      "name": "VolleyBall_VolleyBallYellow_0"
    },
    {
      "mesh": 1,
      "name": "VolleyBall_VolleyBallBlue_0"
    }
  ],
  "scene": 0,
  "scenes": [
    {
      "name": "OSG_Scene",
      "nodes": [
        0
      ]
    }
  ]
}
