{
  "accessors": [
    {
      "bufferView": 2,
      "componentType": 5126,
      "count": 65532,
      "max": [
        0.5036685466766357,
        0.7258244752883911,
        0.34827086329460144
      ],
      "min": [
        -0.5036685466766357,
        -0.7258244752883911,
        -0.012864828109741211
      ],
      "type": "VEC3"
    },
    {
      "bufferView": 2,
      "byteOffset": 786384,
      "componentType": 5126,
      "count": 65532,
      "max": [
        0.999995768070221,
        0.9999966025352478,
        1.0
      ],
      "min": [
        -0.9999954104423523,
        -0.9999544024467468,
        -1.0
      ],
      "type": "VEC3"
    },
    {
      "bufferView": 1,
      "componentType": 5126,
      "count": 65532,
      "max": [
        0.9977893233299255,
        0.9978989958763123
      ],
      "min": [
        0.0020939409732818604,
        0.4342048168182373
      ],
      "type": "VEC2"
    },
    {
      "bufferView": 0,
      "componentType": 5125,
      "count": 327009,
      "type": "SCALAR"
    },
    {
      "bufferView": 2,
      "byteOffset": 1572768,
      "componentType": 5126,
      "count": 38623,
      "max": [
        0.5025553703308105,
        0.7238006591796875,
        0.3558793365955353
      ],
      "min": [
        -0.5036606192588806,
        -0.6961261034011841,
        0.000270843505859375
      ],
      "type": "VEC3"
    },
    {
      "bufferView": 2,
      "byteOffset": 2036244,
      "componentType": 5126,
      "count": 38623,
      "max": [
        0.9999995231628418,
        0.9999995827674866,
        1.0
      ],
      "min": [
        -0.9999954104423523,
        -0.9990862011909485,
        -1.0
      ],
      "type": "VEC3"
    },
    {
      "bufferView": 1,
      "byteOffset": 524256,
      "componentType": 5126,
      "count": 38623,
      "max": [
        0.9749763011932373,
        0.9978936910629272
      ],
      "min": [
        0.0021761171519756317,
        0.6509036421775818
      ],
      "type": "VEC2"
    },
    {
      "bufferView": 0,
      "byteOffset": 1308036,
      "componentType": 5125,
      "count": 202104,
      "type": "SCALAR"
    }
  ],
  "asset": {
    "extras": {
      "author": "annettew (https://sketchfab.com/annettew)",
      "license": "CC-BY-NC-SA-4.0 (http://creativecommons.org/licenses/by-nc-sa/4.0/)",
      "source": "https://sketchfab.com/3d-models/hermes-the-dog-sleeping-on-bed-9a8c9cab75ef46feaea387482f051eee",
      "title": "Hermes the Dog Sleeping on Bed"
    },
    "generator": "Sketchfab-10.57.0",
    "version": "2.0"
  },
  "bufferViews": [
    {
      "buffer": 0,
      "byteLength": 2116452,
      "name": "floatBufferViews",
      "target": 34963
    },
    {
      "buffer": 0,
      "byteLength": 833240,
      "byteOffset": 2116452,
      "byteStride": 8,
      "name": "floatBufferViews",
      "target": 34962
    },
    {
      "buffer": 0,
      "byteLength": 2499720,
      "byteOffset": 2949692,
      "byteStride": 12,
      "name": "floatBufferViews",
      "target": 34962
    }
  ],
  "buffers": [
    {
      "byteLength": 5449412,
      "uri": "scene.bin"
    }
  ],
  "extensionsUsed": [
    "KHR_materials_unlit"
  ],
  "images": [
    {
      "uri": "textures/main_baseColor.jpeg"
    }
  ],
  "materials": [
    {
      "doubleSided": true,
      "extensions": {
        "KHR_materials_unlit": {}
      },
      "name": "main",
      "pbrMetallicRoughness": {
        "baseColorTexture": {
          "index": 0
        },
        "metallicFactor": 0.0
      }
    }
  ],
  "meshes": [
    {
      "name": "Object_0",
      "primitives": [
        {
          "attributes": {
            "NORMAL": 1,
            "POSITION": 0,
            "TEXCOORD_0": 2
          },
          "indices": 3,
          "material": 0,
          "mode": 4
        }
      ]
    },
    {
      "name": "Object_1",
      "primitives": [
        {
          "attributes": {
            "NORMAL": 5,
            "POSITION": 4,
            "TEXCOORD_0": 6
          },
          "indices": 7,
          "material": 0,
          "mode": 4
        }
      ]
    }
  ],
  "nodes": [
    {
      "children": [
        1
      ],
      "matrix": [
        1.0,
        0.0,
        0.0,
        0.0,
        0.0,
        2.220446049250313e-16,
        -1.0,
        0.0,
        0.0,
        1.0,
        2.220446049250313e-16,
        0.0,
        0.0,
        0.0,
        0.0,
        1.0
      ],
      "name": "Sketchfab_model"
    },
    {
      "children": [
        2,
        3
      ],
      "name": "scaniverse-20210328-144041.obj.cleaner.materialmerger.gles"
    },
    {
      "mesh": 0,
      "name": "Object_2"
    },
    {
      "mesh": 1,
      "name": "Object_3"
    }
  ],
  "samplers": [
    {
      "magFilter": 9729,
      "minFilter": 9987,
      "wrapS": 10497,
      "wrapT": 10497
    }
  ],
  "scene": 0,
  "scenes": [
    {
      "name": "Sketchfab_Scene",
      "nodes": [
        0
      ]
    }
  ],
  "textures": [
    {
      "sampler": 0,
      "source": 0
    }
  ]
}
