{
  "accessors": [
    {
      "bufferView": 2,
      "componentType": 5126,
      "count": 350,
      "max": [
        0.5,
        0.02849244512617588,
        0.50000011920928955
      ],
      "min": [
        -0.50000011920928955,
        -0.11092333495616913,
        -0.5000002384185791
      ],
      "type": "VEC3"
    },
    {
      "bufferView": 2,
      "byteOffset": 4200,
      "componentType": 5126,
      "count": 350,
      "max": [
        1,
        0.99964642524719238,
        1
      ],
      "min": [
        -1,
        -1,
        -1
      ],
      "type": "VEC3"
    },
    {
      "bufferView": 3,
      "componentType": 5126,
      "count": 350,
      "max": [
        1,
        0.55301833152770996,
        1,
        1
      ],
      "min": [
        -1,
        -0.073006443679332733,
        -1,
        -1
      ],
      "type": "VEC4"
    },
    {
      "bufferView": 1,
      "componentType": 5126,
      "count": 350,
      "max": [
        0.65625,
        1
      ],
      "min": [
        0.34374997019767761,
        0.3125
      ],
      "type": "VEC2"
    },
    {
      "bufferView": 0,
      "componentType": 5125,
      "count": 1188,
      "max": [
        349
      ],
      "min": [
        0
      ],
      "type": "SCALAR"
    },
    {
      "bufferView": 2,
      "byteOffset": 8400,
      "componentType": 5126,
      "count": 789,
      "max": [
        0.43930655717849731,
        0.49489116668701172,
        0.40000006556510925
      ],
      "min": [
        -0.52869623899459839,
        -0.5,
        -0.4000001847743988
      ],
      "type": "VEC3"
    },
    {
      "bufferView": 2,
      "byteOffset": 17868,
      "componentType": 5126,
      "count": 789,
      "max": [
        1,
        1,
        1
      ],
      "min": [
        -1,
        -1,
        -1
      ],
      "type": "VEC3"
    },
    {
      "bufferView": 3,
      "byteOffset": 5600,
      "componentType": 5126,
      "count": 789,
      "max": [
        1,
        1,
        1,
        1
      ],
      "min": [
        -1,
        -1,
        -1,
        -1
      ],
      "type": "VEC4"
    },
    {
      "bufferView": 1,
      "byteOffset": 2800,
      "componentType": 5126,
      "count": 789,
      "max": [
        0.70000016689300537,
        1
      ],
      "min": [
        0.19999998807907104,
        -1.5646219253540039e-07
      ],
      "type": "VEC2"
    },
    {
      "bufferView": 0,
      "byteOffset": 4752,
      "componentType": 5125,
      "count": 3084,
      "max": [
        788
      ],
      "min": [
        0
      ],
      "type": "SCALAR"
    },
    {
      "bufferView": 2,
      "byteOffset": 27336,
      "componentType": 5126,
      "count": 384,
      "max": [
        3.1559822559356689,
        1.6234328746795654,
        3.1554570198059082
      ],
      "min": [
        -1.7762342691421509,
        -0.47768843173980713,
        -3.1445431709289551
      ],
      "type": "VEC3"
    },
    {
      "bufferView": 2,
      "byteOffset": 31944,
      "componentType": 5126,
      "count": 384,
      "max": [
        1,
        1,
        1
      ],
      "min": [
        -1,
        -1,
        -1
      ],
      "type": "VEC3"
    },
    {
      "bufferView": 3,
      "byteOffset": 18224,
      "componentType": 5126,
      "count": 384,
      "max": [
        1,
        1,
        1,
        1
      ],
      "min": [
        0,
        -1,
        -1,
        1
      ],
      "type": "VEC4"
    },
    {
      "bufferView": 1,
      "byteOffset": 9112,
      "componentType": 5126,
      "count": 384,
      "max": [
        0.96572524309158325,
        0.99800807237625122
      ],
      "min": [
        0.0019275953527539968,
        0.0019920321647077799
      ],
      "type": "VEC2"
    },
    {
      "bufferView": 1,
      "byteOffset": 12184,
      "componentType": 5126,
      "count": 384,
      "max": [
        0.96572524309158325,
        0.99800807237625122
      ],
      "min": [
        0.0019275953527539968,
        0.0019920321647077799
      ],
      "type": "VEC2"
    },
    {
      "bufferView": 0,
      "byteOffset": 17088,
      "componentType": 5125,
      "count": 576,
      "max": [
        383
      ],
      "min": [
        0
      ],
      "type": "SCALAR"
    },
    {
      "bufferView": 2,
      "byteOffset": 36552,
      "componentType": 5126,
      "count": 350,
      "max": [
        0.5,
        0.028492439538240433,
        0.50000011920928955
      ],
      "min": [
        -0.50000011920928955,
        -0.11092333495616913,
        -0.5000002384185791
      ],
      "type": "VEC3"
    },
    {
      "bufferView": 2,
      "byteOffset": 40752,
      "componentType": 5126,
      "count": 350,
      "max": [
        1,
        0.99964642524719238,
        1
      ],
      "min": [
        -1,
        -1,
        -1
      ],
      "type": "VEC3"
    },
    {
      "bufferView": 3,
      "byteOffset": 24368,
      "componentType": 5126,
      "count": 350,
      "max": [
        1,
        0.55301833152770996,
        1,
        1
      ],
      "min": [
        -1,
        -0.073006443679332733,
        -1,
        -1
      ],
      "type": "VEC4"
    },
    {
      "bufferView": 1,
      "byteOffset": 15256,
      "componentType": 5126,
      "count": 350,
      "max": [
        0.65625,
        1
      ],
      "min": [
        0.34374997019767761,
        0.3125
      ],
      "type": "VEC2"
    },
    {
      "bufferView": 0,
      "byteOffset": 19392,
      "componentType": 5125,
      "count": 1188,
      "max": [
        349
      ],
      "min": [
        0
      ],
      "type": "SCALAR"
    },
    {
      "bufferView": 2,
      "byteOffset": 44952,
      "componentType": 5126,
      "count": 350,
      "max": [
        0.5,
        0.028492439538240433,
        0.50000011920928955
      ],
      "min": [
        -0.50000011920928955,
        -0.11092333495616913,
        -0.5000002384185791
      ],
      "type": "VEC3"
    },
    {
      "bufferView": 2,
      "byteOffset": 49152,
      "componentType": 5126,
      "count": 350,
      "max": [
        1,
        0.99964642524719238,
        1
      ],
      "min": [
        -1,
        -1,
        -1
      ],
      "type": "VEC3"
    },
    {
      "bufferView": 3,
      "byteOffset": 29968,
      "componentType": 5126,
      "count": 350,
      "max": [
        1,
        0.55301833152770996,
        1,
        1
      ],
      "min": [
        -1,
        -0.073006443679332733,
        -1,
        -1
      ],
      "type": "VEC4"
    },
    {
      "bufferView": 1,
      "byteOffset": 18056,
      "componentType": 5126,
      "count": 350,
      "max": [
        0.65625,
        1
      ],
      "min": [
        0.34374997019767761,
        0.3125
      ],
      "type": "VEC2"
    },
    {
      "bufferView": 0,
      "byteOffset": 24144,
      "componentType": 5125,
      "count": 1188,
      "max": [
        349
      ],
      "min": [
        0
      ],
      "type": "SCALAR"
    },
    {
      "bufferView": 2,
      "byteOffset": 53352,
      "componentType": 5126,
      "count": 350,
      "max": [
        0.5,
        0.028492439538240433,
        0.50000011920928955
      ],
      "min": [
        -0.50000011920928955,
        -0.11092333495616913,
        -0.5000002384185791
      ],
      "type": "VEC3"
    },
    {
      "bufferView": 2,
      "byteOffset": 57552,
      "componentType": 5126,
      "count": 350,
      "max": [
        1,
        0.99964642524719238,
        1
      ],
      "min": [
        -1,
        -1,
        -1
      ],
      "type": "VEC3"
    },
    {
      "bufferView": 3,
      "byteOffset": 35568,
      "componentType": 5126,
      "count": 350,
      "max": [
        1,
        0.55301833152770996,
        1,
        1
      ],
      "min": [
        -1,
        -0.073006443679332733,
        -1,
        -1
      ],
      "type": "VEC4"
    },
    {
      "bufferView": 1,
      "byteOffset": 20856,
      "componentType": 5126,
      "count": 350,
      "max": [
        0.65625,
        1
      ],
      "min": [
        0.34374997019767761,
        0.3125
      ],
      "type": "VEC2"
    },
    {
      "bufferView": 0,
      "byteOffset": 28896,
      "componentType": 5125,
      "count": 1188,
      "max": [
        349
      ],
      "min": [
        0
      ],
      "type": "SCALAR"
    }
  ],
  "asset": {
    "extras": {
      "author": "calebjtv (https://sketchfab.com/calebjtv)",
      "license": "CC-BY-4.0 (http://creativecommons.org/licenses/by/4.0/)",
      "source": "https://sketchfab.com/3d-models/picnic-table-93a6d86f97ff49e18220c8d5af6f2410",
      "title": "Picnic Table"
    },
    "generator": "Sketchfab-6.36.0",
    "version": "2.0"
  },
  "bufferViews": [
    {
      "buffer": 0,
      "byteLength": 33648,
      "byteOffset": 0,
      "name": "floatBufferViews",
      "target": 34963
    },
    {
      "buffer": 0,
      "byteLength": 23656,
      "byteOffset": 33648,
      "byteStride": 8,
      "name": "floatBufferViews",
      "target": 34962
    },
    {
      "buffer": 0,
      "byteLength": 61752,
      "byteOffset": 57304,
      "byteStride": 12,
      "name": "floatBufferViews",
      "target": 34962
    },
    {
      "buffer": 0,
      "byteLength": 41168,
      "byteOffset": 119056,
      "byteStride": 16,
      "name": "floatBufferViews",
      "target": 34962
    }
  ],
  "buffers": [
    {
      "byteLength": 160224,
      "uri": "scene.bin"
    }
  ],
  "images": [
    {
      "uri": "textures/tWood_baseColor.png"
    }
  ],
  "materials": [
    {
      "doubleSided": true,
      "emissiveFactor": [
        0,
        0,
        0
      ],
      "name": "blinn1",
      "pbrMetallicRoughness": {
        "baseColorFactor": [
          0.93400000000000005,
          0.88854200000000005,
          0.72104800000000002,
          1
        ],
        "metallicFactor": 0,
        "roughnessFactor": 0.92074838159999994
      }
    },
    {
      "doubleSided": true,
      "emissiveFactor": [
        0,
        0,
        0
      ],
      "name": "mGlass",
      "pbrMetallicRoughness": {
        "baseColorFactor": [
          0.34150000000000003,
          0.5,
          0.45080999999999999,
          1
        ],
        "metallicFactor": 0,
        "roughnessFactor": 0.92074838159999994
      }
    },
    {
      "doubleSided": true,
      "emissiveFactor": [
        0,
        0,
        0
      ],
      "name": "tWood",
      "pbrMetallicRoughness": {
        "baseColorFactor": [
          1,
          1,
          1,
          1
        ],
        "baseColorTexture": {
          "index": 0,
          "texCoord": 0
        },
        "metallicFactor": 0,
        "roughnessFactor": 0.59999999999999998
      }
    }
  ],
  "meshes": [
    {
      "name": "plate_blinn1_0",
      "primitives": [
        {
          "attributes": {
            "NORMAL": 1,
            "POSITION": 0,
            "TANGENT": 2,
            "TEXCOORD_0": 3
          },
          "indices": 4,
          "material": 0,
          "mode": 4
        }
      ]
    },
    {
      "name": "Cup1_mGlass_0",
      "primitives": [
        {
          "attributes": {
            "NORMAL": 6,
            "POSITION": 5,
            "TANGENT": 7,
            "TEXCOORD_0": 8
          },
          "indices": 9,
          "material": 1,
          "mode": 4
        }
      ]
    },
    {
      "name": "board10_tWood_0",
      "primitives": [
        {
          "attributes": {
            "NORMAL": 11,
            "POSITION": 10,
            "TANGENT": 12,
            "TEXCOORD_0": 13,
            "TEXCOORD_1": 14
          },
          "indices": 15,
          "material": 2,
          "mode": 4
        }
      ]
    },
    {
      "name": "plate1_blinn1_0",
      "primitives": [
        {
          "attributes": {
            "NORMAL": 17,
            "POSITION": 16,
            "TANGENT": 18,
            "TEXCOORD_0": 19
          },
          "indices": 20,
          "material": 0,
          "mode": 4
        }
      ]
    },
    {
      "name": "plate2_blinn1_0",
      "primitives": [
        {
          "attributes": {
            "NORMAL": 22,
            "POSITION": 21,
            "TANGENT": 23,
            "TEXCOORD_0": 24
          },
          "indices": 25,
          "material": 0,
          "mode": 4
        }
      ]
    },
    {
      "name": "plate3_blinn1_0",
      "primitives": [
        {
          "attributes": {
            "NORMAL": 27,
            "POSITION": 26,
            "TANGENT": 28,
            "TEXCOORD_0": 29
          },
          "indices": 30,
          "material": 0,
          "mode": 4
        }
      ]
    }
  ],
  "nodes": [
    {
      "children": [
        1
      ],
      "name": "RootNode (gltf orientation matrix)",
      "rotation": [
        -0.70710678118654746,
        -0,
        -0,
        0.70710678118654757
      ]
    },
    {
      "children": [
        2
      ],
      "name": "RootNode (model correction matrix)"
    },
    {
      "children": [
        3
      ],
      "matrix": [
        1,
        0,
        0,
        0,
        0,
        0,
        1,
        0,
        0,
        -1,
        0,
        0,
        0,
        0,
        0,
        1
      ],
      "name": "d9b0caea89fc480288b4886ef65db6f0.fbx"
    },
    {
      "children": [
        4,
        6,
        8,
        10,
        12,
        14
      ],
      "name": "RootNode"
    },
    {
      "children": [
        5
      ],
      "matrix": [
        1,
        0,
        0,
        0,
        0,
        0.68247157335281372,
        0,
        0,
        0,
        0,
        1,
        0,
        1.4052878618240356,
        1.7007771730422974,
        -1.4329401254653931,
        1
      ],
      "name": "plate"
    },
    {
      "mesh": 0,
      "name": "plate_blinn1_0"
    },
    {
      "children": [
        7
      ],
      "matrix": [
        0.56322723627090454,
        0,
        0,
        0,
        0,
        0.67099851369857788,
        0,
        0,
        0,
        0,
        0.47204086184501648,
        0,
        0.83902740478515625,
        1.9574015140533447,
        -0.027800725772976875,
        1
      ],
      "name": "Cup1"
    },
    {
      "mesh": 1,
      "name": "Cup1_mGlass_0"
    },
    {
      "children": [
        9
      ],
      "name": "board10"
    },
    {
      "mesh": 2,
      "name": "board10_tWood_0"
    },
    {
      "children": [
        11
      ],
      "matrix": [
        1,
        0,
        0,
        0,
        0,
        0.68247157335281372,
        0,
        0,
        0,
        0,
        1,
        0,
        1.2307056188583374,
        1.7007771730422974,
        2.1265738010406494,
        1
      ],
      "name": "plate1"
    },
    {
      "mesh": 3,
      "name": "plate1_blinn1_0"
    },
    {
      "children": [
        13
      ],
      "matrix": [
        1,
        0,
        0,
        0,
        0,
        0.68247157335281372,
        0,
        0,
        0,
        0,
        1,
        0,
        0.14266569912433624,
        1.7007771730422974,
        -1.8839707374572754,
        1
      ],
      "name": "plate2"
    },
    {
      "mesh": 4,
      "name": "plate2_blinn1_0"
    },
    {
      "children": [
        15
      ],
      "matrix": [
        1,
        0,
        0,
        0,
        0,
        0.68247157335281372,
        0,
        0,
        0,
        0,
        1,
        0,
        0.22435027360916138,
        1.7007771730422974,
        1.050886869430542,
        1
      ],
      "name": "plate3"
    },
    {
      "mesh": 5,
      "name": "plate3_blinn1_0"
    }
  ],
  "samplers": [
    {
      "magFilter": 9729,
      "minFilter": 9987,
      "wrapS": 10497,
      "wrapT": 10497
    }
  ],
  "scene": 0,
  "scenes": [
    {
      "name": "OSG_Scene",
      "nodes": [
        0
      ]
    }
  ],
  "textures": [
    {
      "sampler": 0,
      "source": 0
    }
  ]
}

