{
  "accessors": [
    {
      "bufferView": 2,
      "componentType": 5126,
      "count": 989,
      "max": [
        3.8564798831939697,
        6.7323098182678223,
        4.4923601150512695
      ],
      "min": [
        -3.8575398921966553,
        -6.5058798789978027,
        -4.0231099128723145
      ],
      "type": "VEC3"
    },
    {
      "bufferView": 2,
      "byteOffset": 11868,
      "componentType": 5126,
      "count": 989,
      "max": [
        0.99999791383743286,
        0.99999910593032837,
        0.99999910593032837
      ],
      "min": [
        -0.99999791383743286,
        -0.99999874830245972,
        -1
      ],
      "type": "VEC3"
    },
    {
      "bufferView": 3,
      "componentType": 5126,
      "count": 989,
      "max": [
        0.99995803833007812,
        0.99986815452575684,
        0.9999275803565979,
        1
      ],
      "min": [
        -0.99995803833007812,
        -0.99987030029296875,
        -0.99992513656616211,
        -1
      ],
      "type": "VEC4"
    },
    {
      "bufferView": 1,
      "componentType": 5126,
      "count": 989,
      "max": [
        0.98603999614715576,
        0.98537999391555786
      ],
      "min": [
        0,
        0
      ],
      "type": "VEC2"
    },
    {
      "bufferView": 1,
      "byteOffset": 7912,
      "componentType": 5126,
      "count": 989,
      "max": [
        0.98603999614715576,
        0.98537999391555786
      ],
      "min": [
        0,
        0
      ],
      "type": "VEC2"
    },
    {
      "bufferView": 0,
      "componentType": 5125,
      "count": 4344,
      "max": [
        988
      ],
      "min": [
        0
      ],
      "type": "SCALAR"
    },
    {
      "bufferView": 2,
      "byteOffset": 23736,
      "componentType": 5126,
      "count": 270,
      "max": [
        3.1334500312805176,
        6.7350997924804688,
        4.6843900680541992
      ],
      "min": [
        -3.104680061340332,
        -6.049069881439209,
        -1.5766799449920654
      ],
      "type": "VEC3"
    },
    {
      "bufferView": 2,
      "byteOffset": 26976,
      "componentType": 5126,
      "count": 270,
      "max": [
        0.28835052251815796,
        0.97654503583908081,
        0.99957644939422607
      ],
      "min": [
        -0.28835052251815796,
        -0.99993455410003662,
        -0.95449191331863403
      ],
      "type": "VEC3"
    },
    {
      "bufferView": 3,
      "byteOffset": 15824,
      "componentType": 5126,
      "count": 270,
      "max": [
        -0.95412009954452515,
        0.04186972975730896,
        0.29702708125114441,
        1
      ],
      "min": [
        -1,
        -0.043689854443073273,
        -0.29691097140312195,
        1
      ],
      "type": "VEC4"
    },
    {
      "bufferView": 1,
      "byteOffset": 15824,
      "componentType": 5126,
      "count": 270,
      "max": [
        0.94213998317718506,
        0.97588002681732178
      ],
      "min": [
        0.052900001406669617,
        0.022740000858902931
      ],
      "type": "VEC2"
    },
    {
      "bufferView": 0,
      "byteOffset": 17376,
      "componentType": 5125,
      "count": 1392,
      "max": [
        269
      ],
      "min": [
        0
      ],
      "type": "SCALAR"
    },
    {
      "bufferView": 2,
      "byteOffset": 30216,
      "componentType": 5126,
      "count": 523,
      "max": [
        3.843250036239624,
        7.2782101631164551,
        5.3506999015808105
      ],
      "min": [
        -3.8443000316619873,
        -6.4667301177978516,
        -4.0265097618103027
      ],
      "type": "VEC3"
    },
    {
      "bufferView": 2,
      "byteOffset": 36492,
      "componentType": 5126,
      "count": 523,
      "max": [
        1,
        0.9711487889289856,
        0.99281126260757446
      ],
      "min": [
        -1,
        -0.97319179773330688,
        -1
      ],
      "type": "VEC3"
    },
    {
      "bufferView": 3,
      "byteOffset": 20144,
      "componentType": 5126,
      "count": 523,
      "max": [
        0.999542236328125,
        0.82673740386962891,
        0.80452084541320801,
        1
      ],
      "min": [
        -0.999542236328125,
        -0.85981392860412598,
        -0.84960150718688965,
        -1
      ],
      "type": "VEC4"
    },
    {
      "bufferView": 1,
      "byteOffset": 17984,
      "componentType": 5126,
      "count": 523,
      "max": [
        0.982200026512146,
        0.98133999109268188
      ],
      "min": [
        0,
        0
      ],
      "type": "VEC2"
    },
    {
      "bufferView": 1,
      "byteOffset": 22168,
      "componentType": 5126,
      "count": 523,
      "max": [
        0.982200026512146,
        0.98133999109268188
      ],
      "min": [
        0,
        0
      ],
      "type": "VEC2"
    },
    {
      "bufferView": 1,
      "byteOffset": 26352,
      "componentType": 5126,
      "count": 523,
      "max": [
        0.982200026512146,
        0.98133999109268188
      ],
      "min": [
        0,
        0
      ],
      "type": "VEC2"
    },
    {
      "bufferView": 0,
      "byteOffset": 22944,
      "componentType": 5125,
      "count": 2496,
      "max": [
        522
      ],
      "min": [
        0
      ],
      "type": "SCALAR"
    },
    {
      "bufferView": 2,
      "byteOffset": 42768,
      "componentType": 5126,
      "count": 132,
      "max": [
        3.2598299980163574,
        -1.7195800542831421,
        -0.99642002582550049
      ],
      "min": [
        -3.2600500583648682,
        -2.9335200786590576,
        -1.3685899972915649
      ],
      "type": "VEC3"
    },
    {
      "bufferView": 2,
      "byteOffset": 44352,
      "componentType": 5126,
      "count": 132,
      "max": [
        0.74504351615905762,
        0.68933939933776855,
        0.74583309888839722
      ],
      "min": [
        -0.74504351615905762,
        -0.68933939933776855,
        -0.7352641224861145
      ],
      "type": "VEC3"
    },
    {
      "bufferView": 3,
      "byteOffset": 28512,
      "componentType": 5126,
      "count": 132,
      "max": [
        0.9996035099029541,
        0.74529457092285156,
        0.99911248683929443,
        1
      ],
      "min": [
        -0.99897181987762451,
        -0.74362236261367798,
        -0.99524176120758057,
        -1
      ],
      "type": "VEC4"
    },
    {
      "bufferView": 1,
      "byteOffset": 30536,
      "componentType": 5126,
      "count": 132,
      "max": [
        0.95670998096466064,
        0.97179001569747925
      ],
      "min": [
        0.011219999752938747,
        0.042300000786781311
      ],
      "type": "VEC2"
    },
    {
      "bufferView": 0,
      "byteOffset": 32928,
      "componentType": 5125,
      "count": 360,
      "max": [
        131
      ],
      "min": [
        0
      ],
      "type": "SCALAR"
    },
    {
      "bufferView": 2,
      "byteOffset": 45936,
      "componentType": 5126,
      "count": 1364,
      "max": [
        3.8608400821685791,
        1.9044500589370728,
        0.84277999401092529
      ],
      "min": [
        -3.8619000911712646,
        -1.6171000003814697,
        -0.8636699914932251
      ],
      "type": "VEC3"
    },
    {
      "bufferView": 2,
      "byteOffset": 62304,
      "componentType": 5126,
      "count": 1364,
      "max": [
        1,
        0.9472082257270813,
        1
      ],
      "min": [
        -1,
        -0.9472082257270813,
        -1
      ],
      "type": "VEC3"
    },
    {
      "bufferView": 3,
      "byteOffset": 30624,
      "componentType": 5126,
      "count": 1364,
      "max": [
        0,
        0,
        0,
        1
      ],
      "min": [
        0,
        0,
        0,
        1
      ],
      "type": "VEC4"
    },
    {
      "bufferView": 1,
      "byteOffset": 31592,
      "componentType": 5126,
      "count": 1364,
      "max": [
        0,
        0
      ],
      "min": [
        0,
        0
      ],
      "type": "VEC2"
    },
    {
      "bufferView": 0,
      "byteOffset": 34368,
      "componentType": 5125,
      "count": 5376,
      "max": [
        1363
      ],
      "min": [
        0
      ],
      "type": "SCALAR"
    },
    {
      "bufferView": 2,
      "byteOffset": 78672,
      "componentType": 5126,
      "count": 1698,
      "max": [
        3.5570199489593506,
        6.7976698875427246,
        5.0068597793579102
      ],
      "min": [
        -3.5580699443817139,
        -6.3785200119018555,
        -3.1788499355316162
      ],
      "type": "VEC3"
    },
    {
      "bufferView": 2,
      "byteOffset": 99048,
      "componentType": 5126,
      "count": 1698,
      "max": [
        1,
        0.99999898672103882,
        0.99999958276748657
      ],
      "min": [
        -1,
        -0.99999898672103882,
        -0.99999934434890747
      ],
      "type": "VEC3"
    },
    {
      "bufferView": 3,
      "byteOffset": 52448,
      "componentType": 5126,
      "count": 1698,
      "max": [
        0.91108882427215576,
        0.99998444318771362,
        0.9999842643737793,
        1
      ],
      "min": [
        -0.91078376770019531,
        -0.9999852180480957,
        -0.99998378753662109,
        -1
      ],
      "type": "VEC4"
    },
    {
      "bufferView": 1,
      "byteOffset": 42504,
      "componentType": 5126,
      "count": 1698,
      "max": [
        0.97386997938156128,
        0.96806997060775757
      ],
      "min": [
        0,
        0
      ],
      "type": "VEC2"
    },
    {
      "bufferView": 1,
      "byteOffset": 56088,
      "componentType": 5126,
      "count": 1698,
      "max": [
        0.97386997938156128,
        0.96806997060775757
      ],
      "min": [
        0,
        0
      ],
      "type": "VEC2"
    },
    {
      "bufferView": 1,
      "byteOffset": 69672,
      "componentType": 5126,
      "count": 1698,
      "max": [
        0.97386997938156128,
        0.96806997060775757
      ],
      "min": [
        0,
        0
      ],
      "type": "VEC2"
    },
    {
      "bufferView": 0,
      "byteOffset": 55872,
      "componentType": 5125,
      "count": 8160,
      "max": [
        1697
      ],
      "min": [
        0
      ],
      "type": "SCALAR"
    }
  ],
  "asset": {
    "extras": {
      "author": "stealth86 (https://sketchfab.com/stealth86)",
      "license": "CC-BY-4.0 (http://creativecommons.org/licenses/by/4.0/)",
      "source": "https://sketchfab.com/3d-models/beach-chair-57e9477018d244378302070a8738b566",
      "title": "Beach Chair"
    },
    "generator": "Sketchfab-6.8.0",
    "version": "2.0"
  },
  "bufferViews": [
    {
      "buffer": 0,
      "byteLength": 88512,
      "byteOffset": 0,
      "name": "floatBufferViews",
      "target": 34963
    },
    {
      "buffer": 0,
      "byteLength": 83256,
      "byteOffset": 88512,
      "byteStride": 8,
      "name": "floatBufferViews",
      "target": 34962
    },
    {
      "buffer": 0,
      "byteLength": 119424,
      "byteOffset": 171768,
      "byteStride": 12,
      "name": "floatBufferViews",
      "target": 34962
    },
    {
      "buffer": 0,
      "byteLength": 79616,
      "byteOffset": 291192,
      "byteStride": 16,
      "name": "floatBufferViews",
      "target": 34962
    }
  ],
  "buffers": [
    {
      "byteLength": 370808,
      "uri": "scene.bin"
    }
  ],
  "images": [
    {
      "uri": "textures/Side_Support_baseColor.png"
    },
    {
      "uri": "textures/Side_Support_metallicRoughness.png"
    },
    {
      "uri": "textures/Side_Support_normal.png"
    },
    {
      "uri": "textures/Cloth_baseColor.png"
    },
    {
      "uri": "textures/Side_rail_baseColor.png"
    },
    {
      "uri": "textures/Side_rail_metallicRoughness.png"
    },
    {
      "uri": "textures/Side_rail_normal.png"
    },
    {
      "uri": "textures/Support_baseColor.png"
    },
    {
      "uri": "textures/Hemi_baseColor.png"
    },
    {
      "uri": "textures/Hemi_metallicRoughness.png"
    },
    {
      "uri": "textures/Hemi_normal.png"
    }
  ],
  "materials": [
    {
      "doubleSided": true,
      "emissiveFactor": [
        0,
        0,
        0
      ],
      "name": "Side_Support",
      "normalTexture": {
        "index": 2,
        "scale": 1,
        "texCoord": 0
      },
      "pbrMetallicRoughness": {
        "baseColorFactor": [
          1,
          1,
          1,
          1
        ],
        "baseColorTexture": {
          "index": 0,
          "texCoord": 0
        },
        "metallicFactor": 0,
        "metallicRoughnessTexture": {
          "index": 1,
          "texCoord": 0
        },
        "roughnessFactor": 1
      }
    },
    {
      "doubleSided": true,
      "emissiveFactor": [
        0,
        0,
        0
      ],
      "name": "Cloth",
      "pbrMetallicRoughness": {
        "baseColorFactor": [
          1,
          1,
          1,
          1
        ],
        "baseColorTexture": {
          "index": 3,
          "texCoord": 0
        },
        "metallicFactor": 0,
        "roughnessFactor": 0.80000000000000004
      }
    },
    {
      "doubleSided": true,
      "emissiveFactor": [
        0,
        0,
        0
      ],
      "name": "Side_rail",
      "normalTexture": {
        "index": 6,
        "scale": 1,
        "texCoord": 0
      },
      "pbrMetallicRoughness": {
        "baseColorFactor": [
          1,
          1,
          1,
          1
        ],
        "baseColorTexture": {
          "index": 4,
          "texCoord": 0
        },
        "metallicFactor": 0,
        "metallicRoughnessTexture": {
          "index": 5,
          "texCoord": 0
        },
        "roughnessFactor": 1
      }
    },
    {
      "doubleSided": true,
      "emissiveFactor": [
        0,
        0,
        0
      ],
      "name": "Support",
      "pbrMetallicRoughness": {
        "baseColorFactor": [
          1,
          1,
          1,
          1
        ],
        "baseColorTexture": {
          "index": 7,
          "texCoord": 0
        },
        "metallicFactor": 0,
        "roughnessFactor": 0.59999999999999998
      }
    },
    {
      "doubleSided": true,
      "emissiveFactor": [
        0,
        0,
        0
      ],
      "name": "Fittings",
      "pbrMetallicRoughness": {
        "baseColorFactor": [
          0.80000007149999997,
          0.39079979059999997,
          0.0195707977,
          1
        ],
        "metallicFactor": 1,
        "roughnessFactor": 1
      }
    },
    {
      "doubleSided": true,
      "emissiveFactor": [
        0,
        0,
        0
      ],
      "name": "Hemi",
      "normalTexture": {
        "index": 10,
        "scale": 1,
        "texCoord": 0
      },
      "pbrMetallicRoughness": {
        "baseColorFactor": [
          1,
          1,
          1,
          1
        ],
        "baseColorTexture": {
          "index": 8,
          "texCoord": 0
        },
        "metallicFactor": 0,
        "metallicRoughnessTexture": {
          "index": 9,
          "texCoord": 0
        },
        "roughnessFactor": 1
      }
    }
  ],
  "meshes": [
    {
      "name": "Cylinder.010_0",
      "primitives": [
        {
          "attributes": {
            "NORMAL": 1,
            "POSITION": 0,
            "TANGENT": 2,
            "TEXCOORD_0": 3,
            "TEXCOORD_1": 4
          },
          "indices": 5,
          "material": 0,
          "mode": 4
        }
      ]
    },
    {
      "name": "Cylinder.010_1",
      "primitives": [
        {
          "attributes": {
            "NORMAL": 7,
            "POSITION": 6,
            "TANGENT": 8,
            "TEXCOORD_0": 9
          },
          "indices": 10,
          "material": 1,
          "mode": 4
        }
      ]
    },
    {
      "name": "Cylinder.010_2",
      "primitives": [
        {
          "attributes": {
            "NORMAL": 12,
            "POSITION": 11,
            "TANGENT": 13,
            "TEXCOORD_0": 14,
            "TEXCOORD_1": 15,
            "TEXCOORD_2": 16
          },
          "indices": 17,
          "material": 2,
          "mode": 4
        }
      ]
    },
    {
      "name": "Cylinder.010_3",
      "primitives": [
        {
          "attributes": {
            "NORMAL": 19,
            "POSITION": 18,
            "TANGENT": 20,
            "TEXCOORD_0": 21
          },
          "indices": 22,
          "material": 3,
          "mode": 4
        }
      ]
    },
    {
      "name": "Cylinder.010_4",
      "primitives": [
        {
          "attributes": {
            "NORMAL": 24,
            "POSITION": 23,
            "TANGENT": 25,
            "TEXCOORD_0": 26
          },
          "indices": 27,
          "material": 4,
          "mode": 4
        }
      ]
    },
    {
      "name": "Cylinder.010_5",
      "primitives": [
        {
          "attributes": {
            "NORMAL": 29,
            "POSITION": 28,
            "TANGENT": 30,
            "TEXCOORD_0": 31,
            "TEXCOORD_1": 32,
            "TEXCOORD_2": 33
          },
          "indices": 34,
          "material": 5,
          "mode": 4
        }
      ]
    }
  ],
  "nodes": [
    {
      "children": [
        1
      ],
      "name": "RootNode (gltf orientation matrix)",
      "rotation": [
        -0.70710678118654746,
        -0,
        -0,
        0.70710678118654757
      ]
    },
    {
      "children": [
        2
      ],
      "name": "RootNode (model correction matrix)"
    },
    {
      "children": [
        3,
        10
      ],
      "name": "Root"
    },
    {
      "children": [
        4,
        5,
        6,
        7,
        8,
        9
      ],
      "matrix": [
        1,
        0,
        0,
        0,
        0,
        1,
        0,
        0,
        0,
        0,
        1,
        0,
        0.00053000000000000009,
        0.55020999999999998,
        4.0067200000000005,
        1
      ],
      "name": "Cylinder.010"
    },
    {
      "mesh": 0,
      "name": "Cylinder.010_0"
    },
    {
      "mesh": 1,
      "name": "Cylinder.010_1"
    },
    {
      "mesh": 2,
      "name": "Cylinder.010_2"
    },
    {
      "mesh": 3,
      "name": "Cylinder.010_3"
    },
    {
      "mesh": 4,
      "name": "Cylinder.010_4"
    },
    {
      "mesh": 5,
      "name": "Cylinder.010_5"
    },
    {
      "children": [
        11
      ],
      "matrix": [
        1,
        0,
        0,
        0,
        0,
        1,
        0,
        0,
        0,
        0,
        1,
        0,
        0,
        0,
        13.095600000000001,
        1
      ],
      "name": "Hemi"
    },
    {
      "name": "Hemi"
    }
  ],
  "samplers": [
    {
      "magFilter": 9729,
      "minFilter": 9987,
      "wrapS": 10497,
      "wrapT": 10497
    }
  ],
  "scene": 0,
  "scenes": [
    {
      "name": "OSG_Scene",
      "nodes": [
        0
      ]
    }
  ],
  "textures": [
    {
      "sampler": 0,
      "source": 0
    },
    {
      "sampler": 0,
      "source": 1
    },
    {
      "sampler": 0,
      "source": 2
    },
    {
      "sampler": 0,
      "source": 3
    },
    {
      "sampler": 0,
      "source": 4
    },
    {
      "sampler": 0,
      "source": 5
    },
    {
      "sampler": 0,
      "source": 6
    },
    {
      "sampler": 0,
      "source": 7
    },
    {
      "sampler": 0,
      "source": 8
    },
    {
      "sampler": 0,
      "source": 9
    },
    {
      "sampler": 0,
      "source": 10
    }
  ]
}

